<svg xmlns="http://www.w3.org/2000/svg" width="1024" height="1024" viewBox="0 0 1024 1024"><path fill="transparent" d="M624.164 154.371a556 556 0 0 0-3.539 2.066c-22.134 12.342-46.96 17.921-71.666 22.472-16.726 2.97-16.726 2.97-31.959 10.091l-3.062 1.813L512 192v-6c-32.097 7.394-60.171 26.088-78 54-3.1 5.138-5.018 10.033-6.557 15.836-2.335 8.382-2.335 8.382-5.713 10.766-2.668.898-2.668.898-5.57 1.593-6.105 1.555-11.598 4.9-17.16 7.805l-2.809 1.434C369.061 291.664 342.172 313.216 324 338l-2.348 3.125C302.387 367.131 288.893 397.395 282 429q-.504 2.118-1.016 4.234c-3.182 13.382-5.623 27.002-6.332 40.754-.583 10.801-1.181 18.237-7.68 27.153-8.175 11.85-8.577 29.286-6.656 43.14C262.22 554.353 265.304 565.458 271 574c-.297 3.696-2.298 5.865-4.562 8.688C257.61 594.578 252.303 608.926 248 623l-.642 2.046c-5.617 18.596-5.479 39.646-.33 58.317 2.655 9.931 2.655 9.931-.102 15.552-2.048 4.61-3.157 9.605-4.488 14.46-.304 1.085-.608 2.17-.92 3.29-4.038 14.565-6.832 25.595.814 39.597 1.854 3.043 3.812 5.885 6.035 8.668 1.984 2.515 3.794 5.135 5.633 7.758 9.979 13.63 24.477 15.588 40.125 19.187q4.287 1 8.572 2.006 2.812.66 5.626 1.315c6.827 1.595 13.633 3.261 20.427 4.991a975 975 0 0 0 21.136 5.106c6.71 1.545 13.413 3.12 20.114 4.707l2.648.626c21.722 5.15 43.315 10.345 64.414 17.687C494.944 848.373 556.966 848.908 616 833l2.736-.732c10.398-2.804 20.453-5.774 30.264-10.268q2.144-.93 4.29-1.855c9.767-4.252 19.31-8.876 28.773-13.77l3.096-1.594c6.027-3.154 11.721-6.561 17.323-10.425 4.431-2.387 8.647-1.904 13.518-1.356 29.514 2.815 62.272.791 86.649-18.29 4.514-3.522 8.376-4.709 13.976-5.648 8.216-1.58 14.898-4.27 22.375-8.062l3-1v-2l2.375-.937c2.548-.992 2.548-.992 4.625-2.063v-2l1.766-.773c2.448-1.344 4.051-2.845 5.984-4.852l1.86-1.914L860 744c-1.303-3.909-2.591-4.109-6.215-5.926l-3.271-1.666-3.452-1.72C825.073 723.609 825.073 723.609 822 719l2.438-.125c4.94-1.213 8.486-3.913 12.562-6.875-.57-3.72-1.564-6.32-3.562-9.5l-1.637-2.637L830 697a6208 6208 0 0 1-3.875-6.312c-.677-1.097-1.354-2.194-2.05-3.325q-2.064-3.344-4.118-6.695a1490 1490 0 0 0-11.223-18.059c-1.704-2.632-1.704-2.632-3.656-5.093-4.938-6.408-6.362-11.519-7.078-19.516-2.342-26.097-8.255-51.083-17.062-75.75l-.959-2.706a90 90 0 0 0-6.896-14.637c-1.263-2.224-2.228-4.497-3.083-6.907l6-3c-1.153-4.507-2.674-8.692-4.437-13-1.797-4.623-3.124-9.077-4.067-13.945l-.378-1.951c-1.26-6.621-2.303-13.277-3.31-19.94-.53-3.504-1.076-7.006-1.62-10.508l-.625-4.031L761 468l-.437-2.828c-1.6-10.198-3.984-20.028-6.901-29.918a688 688 0 0 1-1.955-6.817c-1.919-6.743-3.884-13.41-6.625-19.875-1.087-2.573-2.089-5.173-3.091-7.78-8.524-21.944-20.221-42.123-35.057-60.372-1.868-2.328-3.65-4.706-5.434-7.098-2.832-3.66-5.909-6.598-9.453-9.558-4.473-3.833-8.497-8.167-12.61-12.379-5.02-5.642-5.02-5.642-11.437-8.375v-2l-5-2v-2c-1.508-1.253-1.508-1.253-3.562-2.5-2.962-1.902-5.91-3.81-8.813-5.8-28.317-20.225-28.317-20.225-60.625-29.7 8.692-10.682 8.692-10.682 12.563-15.062 2.65-2.558 2.65-2.558 2.437-4.938l-12-1 2.563-1.617C612.38 225.475 622.425 208.434 627 189l.898-3.691c2.344-10.449 2.415-20.641 2.102-31.309-3.024-1.395-3.024-1.395-5.836.371" id="svg-layer-0" style="pointer-events: all;"/><path fill="#1C82D4" d="M585 267c4.387 1.541 8.703 3.225 13 5l-2.375 1.813c-2.77 2.098-2.77 2.098-4.625 5.187l3.156 1.031C615.004 287.01 634.581 297.561 652 311l2.316 1.734c15.561 11.8 29.765 25.844 41.387 41.537a200 200 0 0 0 3.926 5.026c17.321 22.012 27.911 48.62 36.558 75.015l.922 2.787.809 2.577.712 2.247c.417 2.34.105 3.837-.63 6.077l-7-21 .14 3.594c.58 21.189-4.806 37.997-18.124 54.785-3.78 4.736-3.78 4.736-5.141 10.433 1.391 3.942 3.529 6.208 6.344 9.243 6.658 7.271 8.213 14.15 8.027 23.761-.845 10.93-8.308 19.178-16.246 26.184-9.04 7.686-20.299 12.119-31 17l1.86.06c2.84.097 5.677.206 8.515.315.966.03 1.931.062 2.926.094 8.112.326 16.26 1.03 23.699 4.531l2.188 1c1.812 1 1.812 1 3.812 3v2c1.679 1.376 3.422 2.674 5.188 3.938 10.638 7.806 20.265 16.333 29.625 25.625l2.388 2.36c5.363 5.392 10.13 11.082 14.799 17.077a776 776 0 0 0 3.16 3.871c5.14 6.3 9.96 12.57 14.203 19.524 2.352 3.744 4.994 7.255 7.617 10.812 1.998 2.763 3.894 5.571 5.77 8.418 3.858 5.848 7.89 11.563 11.946 17.274 3.16 4.457 6.254 8.944 9.218 13.535 1.13 1.729 1.13 1.729 3.086 3.566l-3.5 1.375-1.969.773c-8.435 2.838-15.898 3.127-24.781 3.04l-3.836-.002c-10.174-.05-10.174-.05-13.914-1.186v-2l-3.562-.312c-6.891-.935-11.049-2.841-15.375-8.375A221 221 0 0 1 755 698c2.456-2.456 4.6-2.61 7.898-3.371 4.55-1.361 7.51-3.74 10.102-7.629 2.072-9.086-.567-15.984-5.312-23.812-2.729-4.306-5.72-7.07-9.688-10.188l1.68 2.816 2.195 3.746 1.105 1.846c3.879 6.664 5.641 12.892 5.02 20.592-1.426 4.01-2.688 4.838-6.5 6.813-7.26 2.366-15.099 1.503-22.5.187l2.938 2.688c3.407 3.4 6.194 7.062 8.937 11l1.191 1.692c3.89 5.702 4.752 10.802 3.934 17.62-2.244 4.957-5.013 6.907-9.73 9.164-3.851 1.418-7.514 1.471-11.582 1.399l-2.611-.025c-12.794-.387-25.486-4.204-37.077-9.538l2.563 2c2.85 3.509 2.85 3.509 2.625 7.063-.672 3.358-1.184 3.933-3.875 6.375-13.492 6.364-30.216 1.967-43.672-2.57C645.543 733.09 639.28 729.29 633 725c1.42 4.075 3.402 7.13 6 10.563 2.31 3.06 4.418 5.936 6 9.437h2l-1 2h-2c.636 3.05.636 3.05 2.672 3.898L649 752a251 251 0 0 1 6.25 4.625l1.68 1.273A1462 1462 0 0 1 661 761l-1 2c-25.367-16.444-41.769-39.99-50-69-.529-2.714-.83-5.237-1-8h2l.594 3.121c2.29 11.168 6.192 20.766 11.406 30.879h3c-.768-3.501-2.026-6.72-3.312-10.062-4.48-12.454-7.263-25.694-7.688-38.938l-.121-2.984c-.486-22.98 4.727-43.64 15.121-64.016l-4 3 4-8c-16.486 15.231-25.724 31.757-30 54h-2l-.113 2.176c-.374 5.888-.972 11.608-1.981 17.417-3.808 21.992-4.668 43.54 4.2 64.422 1.986 4.708 1.986 4.708.894 7.985l-1.328-3.637C593.29 724.402 585.282 707.531 573 694l-2.441-2.867C548.066 665.109 516.154 652.129 483 646q-.76 4.03-1.5 8.063l-.434 2.279c-1.11 6.104-1.433 11.92-.566 18.096L481 678c-1.054-2.066-2.056-4.13-2.973-6.262-2.325-5.176-4.677-8.54-8.964-12.3-4.005-3.733-4.005-3.733-4.266-6.895.804-3.772 2.056-6.323 4.203-9.543l14 1c2.246-15.662 2.982-31.252 1-47l-3 1-.043-2.21c-.32-6.999-1.409-13.364-3.27-20.102-.2-.74-.4-1.48-.608-2.242-1.11-3.851-2.447-7.31-4.31-10.864L471 559l1-2c4.047 7.505 7.13 14.667 9 23h2a360 360 0 0 1 3.6 4.392c13.856 15.91 38.715 22.014 58.4 25.608v-2l-3-1c-2.25-2.875-2.25-2.875-4-6l1-3 2.113.438c20.259 3.561 40.97 2.384 60.887-2.438l2.318-.551C619.255 591.78 633.97 585.734 646 576l2.648-2.121c5.022-4.249 8.573-8.12 11.317-14.129C661 558 661 558 664 557c1.626-2.943 1.626-2.943 3.063-6.437 2.75-6.376 2.75-6.376 4.937-8.563 1.76-5.552.357-9.89-2-15-5.144-7.638-13.29-13.13-21-18 .148-1.809.148-1.809 1-4 2.477-1.598 2.477-1.598 5.625-3.062l3.285-1.594c2.433-1.058 4.61-1.75 7.153-2.406 3.721-2.455 3.78-3.869 4.812-8.125.424-2.263.796-4.535 1.125-6.813l.555-3.586c4.03-33.551-3.273-68.06-24.242-94.887-17.597-21.843-43.242-36.03-71.146-39.333-26.423-2.367-53.462 3.232-74.605 19.868A537 537 0 0 0 498 369l-2 1.566c-23.133 18.61-34.955 50.77-38.35 79.387-1.864 19.692-.893 40.22 8.35 58.047-3.021-.943-6.01-1.962-9-3l-2.285-.703c-6.334-2.279-9.425-6.162-13.473-11.414-6.658-8.561-15.138-16.858-26.242-18.883-9.213-.91-17.521.71-25.062 6.25L388 482h-2q.215-3.25.438-6.5c.08-1.207.162-2.413.246-3.656.202-2.46.475-4.917.836-7.36 4.078-31.675-.094-70.728-18.82-97.418-5.229-6.357-11.559-12.45-19.958-13.457-3.247-.266-6.487-.469-9.742-.609.47-4.744 2.324-6.9 5.563-10.312l1.464-1.544q1.606-1.68 3.226-3.346a473 473 0 0 0 3.56-3.705c18.206-19.148 39.265-34.26 63.16-45.57 3.049-1.336 3.049-1.336 5.027-3.523l-.048 2.36c-.27 15.527-.14 30.406 3.048 45.64 2.344.371 2.344.371 5 0 2.003-1.877 2.003-1.877 3.688-4.437C440.418 318.26 450.054 309.49 463 307l2 1-1 6 1.738-.516c13.433-3.832 27.214-6.348 40.942-8.87 2.046-.379 4.088-.781 6.12-1.223 2.402-.427 3.906-.156 6.2.609l1-3 2.012.035 2.676.027 2.636.036c16.611-.607 41.473-8.87 54.38-19.278C584 280 584 280 586 280l-1-2c-2.69-.8-5.332-1.495-8.062-2.125l-2.3-.55A906 906 0 0 0 569 274c3.257-7.23 8.577-9.12 16-7" id="svg-layer-1" style="pointer-events: all;"/><path fill="#111447" d="M630 154c1.061 26.065-4.533 52.056-21.602 72.633-4.584 4.525-9.969 7.94-15.398 11.367l12 1c-1.85 3.702-3.742 6.284-6.375 9.438-2.908 3.496-5.795 7.002-8.625 10.562l3.52.816c20.999 5.277 40.828 17.468 58.388 29.749a189 189 0 0 0 4.606 3.054l2.502 1.611 2.305 1.462L663 297v2l5 2v2l1.73.805c6.57 3.46 11.796 8.497 16.516 14.148 3.777 4.408 8.044 8.375 12.192 12.43C705.8 337.903 712.144 346.276 718 355l1.996 2.867c4.661 6.785 8.479 13.703 12.004 21.133a805 805 0 0 0 2.125 4.25l.882 1.775q.943 1.879 1.926 3.737c2.751 5.274 4.74 10.668 6.63 16.3 2.306 6.829 2.306 6.829 4.996 13.512 1.68 3.993 2.828 7.997 3.941 12.176l.605 2.227q.628 2.307 1.24 4.619.647 2.374 1.356 4.73c2.764 9.393 4.198 19.032 5.799 28.674l.895 5.293c1.176 6.982 2.35 13.962 3.404 20.964l.39 2.568q.36 2.38.703 4.763c1.326 8.774 4.114 17.089 7.827 25.146C776 533 776 533 775 536c-2.562 1.187-2.562 1.187-5 2 1.499 3.966 3.342 7.65 5.305 11.406 3.638 7.145 6.344 14.466 8.82 22.094l.643 1.957c3.833 11.693 6.942 23.45 9.232 35.543l.455 2.37a256 256 0 0 1 3.723 28.176c.674 7.703 3.486 13.318 8.01 19.579 4.574 6.449 8.743 13.096 12.812 19.875l1.42 2.36c6.361 10.571 6.361 10.571 9.085 15.165a212 212 0 0 0 3.232 5.173l1.693 2.665 1.562 2.404C837 709 837 709 836.81 711.183c-1.283 2.875-3.45 3.645-6.186 5.067l-2.96 1.578C825 719 825 719 822 719c3.731 4.074 7.47 6.695 12.313 9.313l2.083 1.15c7.426 4.06 15 7.826 22.604 11.537 0 4 0 4-1.68 6.14l-2.195 2.11-2.18 2.14C851 753 851 753 849 753v2c-4.385 3-4.385 3-7 3v2l-3.14 1.242-4.11 1.633-2.066.816c-3.943 1.56-3.943 1.56-7.739 3.438-2.848 1.275-5.737 1.494-8.82 1.933-8.178 1.403-13.797 5.173-20.499 9.84C786.3 785.197 775.788 788.299 765 791l-1.984.505c-13.686 3.359-27.668 3.229-41.641 1.995l-2.77-.242q-2.628-.262-5.242-.64c-6.834-.62-10.874 1.44-16.554 5.121-6.83 4.407-13.968 8.162-21.184 11.886l-1.92.993C664 815.622 654.199 820.09 644 824l-3.273 1.448c-3.512 1.511-7.062 2.628-10.743 3.673l-1.965.56q-3.132.887-6.269 1.756l-2.175.607c-61.557 17.112-124.893 16.247-185.27-4.638-17.692-6.105-35.697-10.554-53.902-14.84a4219 4219 0 0 1-6.886-1.629 9260 9260 0 0 0-17.696-4.18c-14.603-3.44-29.18-6.987-43.75-10.557q-4.096-1.005-8.193-2.002-5.802-1.416-11.6-2.843l-3.475-.845c-19.47-4.806-30.4-9.39-41.1-26.764-2.045-3.298-4.23-6.488-6.441-9.676-4.63-7.595-5.077-16.41-3.223-24.965q.762-2.966 1.586-5.918l.83-3.15c1.901-7.076 4.059-14.032 6.565-20.916 2.066-6.578 2.06-11.125.105-17.746-5.862-20.132-4.535-41.513 1.875-61.375l.811-2.527c4.466-13.565 10.177-25.88 18.806-37.352 1.413-2.167 2.16-3.548 2.383-6.121-.802-2.068-.802-2.068-2.125-4.187-2.534-4.743-4.145-9.482-5.625-14.625l-.637-2.21c-3.914-13.909-4.439-29.205.387-42.978l.879-2.629c1.567-4.294 3.307-7.69 6.156-11.262 4.133-6.114 4.164-12.478 4.59-19.671.211-2.784.444-5.566.676-8.348l.168-2.095C279.931 411.855 302.317 359.165 340 320l1.427-1.493c12.966-13.511 27.833-24.188 43.448-34.382l2.088-1.37c4.537-2.928 9.179-5.409 14.037-7.755a852 852 0 0 0 3.75-1.937c6.205-3.11 12.665-5.868 19.25-8.063a72 72 0 0 0 2.313-6.812c7.79-24.747 26.555-46.093 49.511-58.293 2.3-1.17 4.616-2.27 6.957-3.36 3.299-1.51 3.299-1.51 6.574-3.555 3.957-2.299 8.066-3.519 12.457-4.73l2.311-.668C509.68 186 509.68 186 512 186v6l1.906-1.207 2.594-1.606 2.531-1.582c8.336-4.507 17.35-6.157 26.532-8.105l4.134-.895c5.414-1.167 10.827-2.328 16.265-3.375 7.691-1.486 15.18-3.221 22.663-5.542l2.998-.924c8.152-2.575 15.627-5.775 23.217-9.72a954 954 0 0 1 3.884-2.003c1.8-.926 3.589-1.872 5.378-2.818C627 153 627 153 630 154m-10.691 8.977c-20.729 11.307-41.125 17.075-64.34 21.335l-3.475.64a491 491 0 0 1-6.515 1.136c-9.373 1.67-19.167 4.304-26.167 11.1l-2.425 2.347L514 202l-2.48 2.559c-4.235 4.538-7.742 8.885-10.52 14.441-.337-5.954.582-10.723 2.266-16.434.81-2.832 1.34-5.647 1.734-8.566-4.641.627-8.501 2.52-12.625 4.625l-2.145 1.088C480.344 204.8 471.475 210.805 463 218l-2.754 2.309C453.45 226.216 448.037 232.544 443 240l-1.902 2.797c-11.74 18.598-15.273 41.726-15.286 63.328l-.037 3.496-.005 3.387-.013 3.051c.267 3.236 1.105 5.91 2.243 8.941 3.29-3.183 6.346-6.505 9.375-9.937 20.15-22.328 48.75-28.835 77.313-33.5C525.935 279.708 536.43 277.27 547 273l2.134-.853C564.065 266.102 576.28 257.753 589 248l-1-2c-1.967-.42-1.967-.42-4.34-.527l-2.724-.213q-2.82-.194-5.641-.383C568.862 244.372 563.1 243.1 557 241l3.48-.7c19.187-3.962 19.187-3.962 35.52-14.3l2.496-2.254C615.427 207.67 623.02 183.854 624 161c-1.762 0-3.177 1.14-4.691 1.977m-47.184 106.086c-20.028 13.201-42.966 18.205-66.353 21.72-26.44 4.051-56.784 15.105-73.452 37.47l-1.257 1.935L429 333c-2.629.176-2.629.176-5 0-3.568-18.394-3.78-36.368-2-55-8.578 1.965-16.367 6.05-24 10.313l-2.652 1.471c-6.053 3.398-11.844 6.974-17.348 11.216l-2.203 1.664A471 471 0 0 0 369 308l-2.34 1.773C352.044 321.17 338.75 334.904 328 350l-1.226 1.681C315.555 367.171 306.134 384.878 300 403l-.936 2.758c-8.948 26.802-14.155 54.186-15.502 82.43-.343 5.473-1.362 8.367-4.562 12.812-9 12.645-10.917 27.09-8.67 42.22 4.084 21.72 15.957 41.42 31.67 56.78 2.007-5.037 3.681-10.131 5.234-15.324l.615-2.037c1.269-4.21 1.269-4.21 2.515-8.426C316.388 553.69 326.423 537.463 345 526c5.469-2.804 11.173-5.058 17-7 1.158-2.58 1.158-2.58 2.125-5.75 5.88-16.023 17.83-29.249 32.875-37.25 7.45-3.06 15.637-3.163 23.188-.375 10.159 4.599 18.82 12.67 24.812 22 3.8 5.17 8.994 6.864 14.871 8.905 5.568 1.97 9.136 4.36 12.41 9.47 1.952 5.432 1.509 10.965-.554 16.281-2.03 4.078-4.2 7.93-6.727 11.719.213 5.448 2.668 9.344 5.313 13.938 13.168 24.123 9.065 46.188 1.765 71.412a725 725 0 0 1-3.015 9.943l-.87 2.8a249 249 0 0 1-1.64 5.02c-1.36 4.056-1.36 4.056-.908 8.211 1.444 1.786 2.945 3.281 4.668 4.801 5.593 5.465 9.337 12.437 9.728 20.344-.136 8.41-2.464 16.667-4.916 24.656a107671059602446.23 107671059602446.23 0 0 1-2.941 9.864c-2.148 7.245-4.208 14.516-6.28 21.783q-1.17 4.098-2.343 8.194a2641 2641 0 0 0-7.159 25.432l-1.205 4.362q-1.096 3.967-2.167 7.941c-5.745 20.814-5.745 20.814-12.217 27.486l-2.043 2.168C437 814 437 814 435 815v2c30.66 11.108 62.682 17.24 95.313 17.188l2.116-.002c20.85-.049 41.103-2.223 61.571-6.186l2.565-.494c31.992-6.39 62.041-18.82 90.087-35.291.65-.38 1.3-.76 1.969-1.153L690 790v-2l-1.63-.623C653.716 774.04 626.846 754.685 610 721l-.95-1.88c-6.258-12.633-9.581-27.033-10.05-41.12l-.191-3.965c-.868-25.45 6.703-48.914 23.98-67.844 2.279-2.258 4.67-4.235 7.211-6.191l-1.941 2.57c-17.739 23.875-23.954 49.51-20.759 79.222.812 5.196 2.134 10.193 3.7 15.208l.65 2.156c9.519 31.04 29.702 54.37 58.334 69.774C698.29 783.734 735.868 790.12 767 781c5.417-1.796 10.723-3.832 16-6v-3l-3.488-.629c-16.658-3.16-32.246-8.003-46.512-17.371 3.246 0 5.25.696 8.313 1.75 6.222 1.965 12.456 3.277 18.875 4.438l2.768.504c27.48 4.82 55.625 3.606 79.544-12.13 1.176-.84 2.348-1.688 3.5-2.562-1.361-4.084-3.125-4.407-6.906-6.363l-1.815-.953a859 859 0 0 0-5.779-2.996 1717 1717 0 0 1-7.531-3.926l-1.849-.963a87 87 0 0 1-10.054-6.217c-3.86-2.668-6.884-3.345-11.629-3.582-8.812-.676-16.35-3.58-24.437-7l1-1 1.688.423c13.178 3.291 32.834 2.425 45.312-3.423l2-3c-8.884-14.553-8.884-14.553-17.816-29.077q-2.13-3.465-4.25-6.935C797.886 661.126 791.8 651.366 785 642l-1.402-1.933c-5.541-7.606-11.16-15.004-17.582-21.899-1.925-2.07-3.753-4.198-5.578-6.356-2.85-3.258-5.868-6.13-9.18-8.914a170 170 0 0 1-4.766-4.171c-9.726-8.588-20.88-15-32.492-20.727 20.793 3.812 38.336 16.273 53 31l2.254 2.11c4.957 4.695 8.865 9.969 12.766 15.546L784 629h3c-1.946-28.94-11.232-62.435-25.998-87.262C758 536.532 758 536.532 758 533l6-2c-.706-4.105-1.948-7.875-3.293-11.812-3.176-9.786-4.78-19.81-6.473-29.937C749.454 460.828 744.01 432.774 733 406l-.984-2.394C724.5 385.583 715.271 368.943 704 353l-1.238-1.781c-12.63-17.964-29.97-34.273-47.867-46.88a285 285 0 0 1-5.524-4.023c-18.075-13.35-37.949-23.639-58.996-31.503l-2.349-.884c-6.42-2.3-10.084-2.989-15.901 1.134M378 502c-1.761 2.82-3.302 5.726-4.812 8.688l-1.194 2.26c-5.302 10.194-5.46 21.14-2.244 32.115 2.528 7.676 2.528 7.676 8.25 12.937l2.492-1.828c9.578-6.904 18.465-11.805 30.492-12.567l2.836-.209q2.906-.207 5.813-.382c10.557-.817 18.67-4.726 26.367-12.014a110 110 0 0 0 3.125-4.437c1.39-2.028 1.39-2.028 2.875-3.563 3.875-.5 3.875-.5 7 0l2 4h-4l-4 8a141 141 0 0 0 5 5h2a399 399 0 0 0 3.563-6.562l1.037-1.846c2.364-4.514 2.954-7.53 1.4-12.592-3.404-4.471-7.313-6.233-12.5-8-7.577-2.58-11.518-6.546-16.25-12.875-6.4-8.066-15.366-15.612-25.754-17.605C397.33 479.7 385.971 491.493 378 502m-42.562 39.313a270 270 0 0 0-6.375 7.25l-1.903 2.253c-6.971 10.275-10.172 21.138-13.312 33.014-.73 2.762-1.48 5.518-2.23 8.274q-.714 2.637-1.423 5.275l-.672 2.49c-.822 3.12-1.523 5.89-1.523 9.131 12.836 3.594 12.836 3.594 26 5l.655-2.149q3.15-10.32 6.345-20.624.899-2.9 1.79-5.802c2.257-7.343 4.467-14.27 9.21-20.425l1.438-1.89c3.132-3.883 6.28-6.56 10.562-9.11a151 151 0 0 0-2-11.812c-1.037-5.038-1.586-10.065-2-15.188-9.302 0-18.024 8.412-24.562 14.313m106.125 2.437C436 547.217 430.264 549.17 424 551l2 1.938a500 500 0 0 1 3 3.062l1.938 1.984c9.972 10.653 13.963 22.35 13.585 36.899-.655 9.28-3.892 18.22-6.62 27.057-1.47 4.978-2.693 10.014-3.903 15.06l2.563 1.172c18.201 8.356 18.201 8.356 19.437 10.828 1.986-.59 1.986-.59 4-2 1.321-2.666 1.321-2.666 2.219-5.906l1.13-3.667q.579-1.964 1.151-3.927l1.195-3.997c6.912-23.304 12.309-45.638.18-68.44-4.494-7.341-9.698-15.16-16.875-20.063-3.553 0-4.522.816-7.437 2.75M403 554c-3.65 3.65-6.031 8.256-8 13v2c7.515-2.094 13.72-5.345 20-10l1-2a479 479 0 0 0-4.25-1.5l-2.39-.844c-2.594-.835-2.594-.835-6.36-.656m-42.2 10.11c-9.527 10.003-12.403 23.52-16.05 36.452l-1.102 3.846c-1.86 5.708-1.86 5.708-2.648 11.592 10.356 2.85 20.744 5.37 31.234 7.672q2.244.495 4.488.992 4.648 1.026 9.298 2.046 5.957 1.309 11.912 2.63a7371 7371 0 0 0 9.22 2.033l4.396.971q3.053.675 6.107 1.343l3.504.77c2.85.637 2.85.637 5.841.543l.918-2.973c2.578-8.313 5.247-16.585 8.066-24.82 1.777-5.611 2.147-10.65 2.079-16.52l-.014-2.244q-.02-2.722-.049-5.443c-3.82 0-4.752.157-7.875 1.875-10.087 5.513-19.888 5.15-30.875 2.5-5.99-1.77-11.937-3.642-16.25-8.375-1.054-5.174.593-9.987 2-15l-1.766.465c-3.05.73-6.128 1.117-9.234 1.535l-1.75-3-2.25-3c-4.855 0-5.788.983-9.2 4.11m55.95.077c-8.699 5.77-15.287 8.488-25.75 9.813l1 3c2.417 1.218 2.417 1.218 5.313 2.125l2.925 1.008c8.681 2.726 18.06 3.669 26.45-.446 2.86-1.6 5.088-3.28 7.312-5.687-1.456-4.804-4.269-8.68-8-12-3.934-1.901-5.87-.155-9.25 2.188M277 583c-5.64 6.768-9.36 14.156-13.092 22.078A319 319 0 0 1 261.52 610c-6.375 13.809-8.628 30.498-8.707 45.625l-.043 3.727c.246 3.901 1.027 6.948 2.23 10.648 2.92-2.92 3.4-6.517 4.426-10.41l1.416-5.19q1.103-4.082 2.191-8.168c.704-2.634 1.423-5.263 2.143-7.892l.632-2.425c2.75-9.973 7.318-18.047 16.255-23.602 5.363-2.882 10.947-3.634 16.937-4.313.444-3.861.444-3.861-1.434-5.605-.66-.523-1.322-1.045-2.003-1.582-4.832-3.984-9.176-8.351-13.563-12.813q-1.53-1.533-3.062-3.062zm7 36-3.25 2.25c-6.086 6.086-8.01 14.297-10.29 22.367l-.977 3.39c-1.043 3.62-2.076 7.244-3.108 10.868q-1.074 3.738-2.151 7.475a13755 13755 0 0 0-4.258 14.815 3807 3807 0 0 1-7.779 26.648l-1.18 4.009-1.089 3.698-.993 3.383q-.886 2.97-1.829 5.922c-2.583 8.125-4.053 16.703-1.1 24.96 4.632 7.86 12.723 10.735 21.173 13.045q3.468.87 6.944 1.701l3.83.95c3.413.844 6.83 1.675 10.247 2.503 3.572.868 7.14 1.75 10.71 2.63q8.76 2.158 17.527 4.294a8855 8855 0 0 1 24.128 5.924 9058 9058 0 0 0 39.595 9.692q2.708.656 5.42 1.3l2.802.67c8.205 1.578 15.122 1.252 22.44-2.959 10.386-7.288 12.452-19.977 15.563-31.597q1.034-3.804 2.07-7.606l.577-2.119c3.313-12.141 6.744-24.25 10.15-36.365 10.623-29.07 10.623-29.07 7.078-58.16-6.761-8.077-13.63-10.024-23.824-11.594-6.28-1.025-12.429-2.423-18.613-3.907a691 691 0 0 0-29.837-6.362c-6.255-1.207-12.422-2.661-18.593-4.233-8.253-2.09-16.568-3.895-24.883-5.717q-3.567-.783-7.134-1.57-2.19-.482-4.381-.961a308 308 0 0 1-10.282-2.436c-8.72-2.138-17.197-2.147-24.703 3.092m169 37 .5 2.375c1.472 10.668-.816 19.575-3.812 29.734q-.68 2.36-1.355 4.72a2796 2796 0 0 1-3.601 12.413c-1.903 6.522-3.78 13.052-5.661 19.581a5109 5109 0 0 1-2.09 7.217c-2.182 7.541-4.309 15.09-6.278 22.689l-.543 2.085a897 897 0 0 0-2.436 9.587c-2.54 9.913-5.496 20.048-14.724 25.599-11.585 5.617-20.807 4.139-33 1.25l-4.014-.929c-24.523-5.703-48.95-11.834-73.384-17.902q-6.79-1.683-13.582-3.36-4.825-1.196-9.646-2.402l-5.89-1.454-2.698-.68c-4.002-.98-7.63-1.823-11.786-1.523a242 242 0 0 0 2.883 4.348 126 126 0 0 1 2.742 4.277c7.577 7.577 21.6 8.742 31.688 11.063a8680 8680 0 0 1 8.499 1.989l5.773 1.35a2339 2339 0 0 1 24.914 5.984 4577 4577 0 0 0 45.405 10.874c6.546 1.536 13.082 3.08 19.576 4.826l2.776.74q2.351.633 4.69 1.318c8.373 2.266 16.207.97 23.734-3.218 12.73-8.509 14.525-25.124 18.172-38.972 2.735-10.287 5.747-20.483 8.786-30.683 5.953-19.945 5.953-19.945 11.675-39.958l.859-2.963c2.07-7.575 2.966-15.027.765-22.663-4.174-7.137-9.843-13.007-16.937-17.312z" id="svg-layer-2" style="pointer-events: all;"/><path fill="#29BAF6" d="m634 369 2.578 2.078c21.44 18.204 34.19 45.9 37.256 73.641.975 13.429 1.08 27.418-1.146 40.719l-.357 2.144c-.776 4.016-1.695 7.262-4.331 10.418-2.542 1.294-4.84 2.307-7.5 3.25l-2.05.773A243 243 0 0 1 650 505v4c1.932 1.788 1.932 1.788 4.5 3.313 8.787 5.841 16.729 11.721 19.438 22.375.102 5.457-2.207 8.76-4.938 13.312a620 620 0 0 0-5 10h-3l-.754 2.695c-5.157 13.677-21.644 22.394-34.186 28.382-12.767 5.72-26.34 8.553-40.06 10.923l-2.896.537c-5.348.798-10.706.653-16.104.65l-3.652.002c-8.284-.049-16.216-.505-24.348-2.189 1.448 3.945 2.982 6.083 6 9v2c-22.454-1.057-46.626-11.46-62-28v-2h-2l-.61-1.589q-1.381-3.581-2.765-7.161l-.96-2.5c-.31-.8-.62-1.598-.938-2.422l-.857-2.222c-1.605-4.046-1.605-4.046-4.245-7.418-3.201-3.325-5.542-6.824-5.75-11.5 1.412-4 3.471-7.352 5.75-10.918 3.1-5.117 2.961-10.459 2.375-16.27-1.323-3.87-3.536-6.56-6.5-9.375-9.223-9.684-9.994-25.94-10.5-38.625l-.125-2.883C455.179 435.182 466.029 403.086 487 379l1.516-1.918c14.668-18.42 39.555-29.928 62.562-32.766C581.914 341.83 609.87 349.232 634 369m-127 42-1.86 1.328c-5.48 4.22-8.72 9.742-12.14 15.672l-1.152 1.89c-2.581 4.603-4.025 9.58-5.536 14.61l-.65 2.159c-4.757 16.53-4.68 36.628 3.772 51.966 7.113 10.786 15.419 17.447 28.066 20.25 4.224.833 4.224.833 8.5 1.125v2h-2l-3 6c3.936-1.48 7.544-3.332 11.25-5.312 19.543-9.996 42.661-12.939 64.375-12.75l3.043.013q3.666.018 7.332.049c-2.296-2.41-4.023-3.598-7.187-4.687l-2.168-.762L596 504c.704-3.31 1.923-6.17 3.313-9.25 8.513-20.468 9.41-41.276 1.402-62.09-7.174-15.527-18.454-25.225-34.012-31.601-19.877-6.904-43.155-2.698-59.703 9.941" id="svg-layer-3" style="pointer-events: all;"/><path fill="#2088D7" d="M481 676c7.705 5.137 11.453 13.506 13.5 22.375 1.572 11.168-1.92 22.162-5.5 32.625 3.14-1.859 6.118-3.758 9-6-.335 5.363-3.541 9.128-7 13l-2.027 1.329c-2.42 2.05-2.671 3.19-3.203 6.276l-.495 2.733-.462 2.85-.499 2.79A280 280 0 0 0 482 770c41.275 14.12 83.61 3.047 122-15l-1-8c2.107 2.709 3.876 5.452 5.563 8.438C620.58 775.566 637.54 791.393 659 801q2.005.99 4 2v2c-69.804 34.017-150.777 37.504-224.122 13.66C437 818 437 818 435 817v-2c1.853-1.618 3.797-3.083 5.762-4.562 5.439-5.924 8.033-13.986 10.363-21.563l.87-2.781c3.434-11.18 6.457-22.48 9.515-33.766a1360 1360 0 0 1 8.017-28.39l.894-3.042q2.148-7.31 4.34-14.607c2.991-10.084 5.296-19.794 6.239-30.289" id="svg-layer-4" style="pointer-events: all;"/><path fill="#F4B441" d="M448 660h1c3.323 14.803-4.537 32.562-8.562 46.688q-1.417 5.003-2.83 10.008l-1.894 6.69a2594 2594 0 0 0-5.718 20.505l-.688 2.504c-1.27 4.621-1.27 4.621-2.532 9.245-7.644 28.109-7.644 28.109-18.401 34.298-12.407 5.364-25.88.376-38.312-2.75q-3.186-.786-6.371-1.569-7.188-1.77-14.37-3.559c-8.593-2.136-17.196-4.222-25.8-6.31q-7.87-1.912-15.738-3.835a7853 7853 0 0 0-13.046-3.176 3585 3585 0 0 1-12.434-3.04 1206 1206 0 0 0-4.615-1.123c-21.021-5.074-21.021-5.074-24.314-10.014-.443-3.027-.457-4.68.625-7.562 2.318-1.279 4.337-2.138 6.813-3 8.22-3.116 16.17-6.697 24.125-10.437 8.872-4.159 17.76-8.266 26.734-12.203 2.576-1.131 5.13-2.257 7.625-3.56 2.284-1.073 4.215-.938 6.703-.8-1.329 4.711-3.368 8.465-5.977 12.559-1.351 3.224-1.183 5.983-1.023 9.441 3.746.996 7.497 1.968 11.25 2.938l3.164.841c7.2 1.845 14.164 2.842 21.586 3.221.974-4.378.953-8.137.625-12.625l-.273-3.977c-.226-3.382-.226-3.382-1.352-6.398a81 81 0 0 1-.062-4.687l.027-2.45L354 714l1.977-.918C363.6 709.43 363.6 709.43 370 704q.787-2.624 1.563-5.25c2.221-5.216 4.937-6.923 9.915-9.122a527 527 0 0 1 11.368-4.402c5.576-2.168 11.012-4.648 16.466-7.101l3.407-1.519a2999 2999 0 0 0 23.906-10.793l3.126-1.424 2.85-1.307c.829-.38 1.657-.758 2.51-1.15 1.852-.788 1.852-.788 2.889-1.932" id="svg-layer-5" style="pointer-events: all;"/><path fill="#2ABBF7" d="M483 646c5.572-.236 10.316.55 15.688 2l2.487.669C529.692 656.66 556.232 671.679 575 695l2.004 2.39c10.44 13.074 18.39 28.407 23.812 44.2a71 71 0 0 0 2.899 7.101c1.626 4.188 1.626 4.188.285 7.309-1.708 1.17-1.708 1.17-3.953 2.113l-2.534 1.084-2.763 1.115-2.855 1.18c-30.626 12.454-72.183 25.004-104.477 11.422-1.839-.908-3.635-1.9-5.418-2.914-.187-6.38.46-12.343 1.563-18.625l.4-2.773c.856-4.839 1.69-7.803 5.537-11.008l1.816-1.268C494.16 734.087 495.4 731.2 497 728l-1-1-1.812 2C492 731 492 731 489 731l.475-2.136c.711-3.243 1.4-6.49 2.087-9.739l.749-3.36c2.472-11.838 1.513-21.036-4.311-31.765-1.727-2.214-3.553-4.233-5.484-6.27-3.853-4.398-3.699-9.164-3.516-14.73.42-2.638.88-5.207 1.438-7.812l.408-2.022c1.008-4.874 1.008-4.874 2.154-7.166m69 71a91 91 0 0 0-4 4v2l-6 2-2.75 1.125c-7.835 2.11-15.488.725-23.25-1.125 3.657 5.143 6.759 7.697 13 9 6.084.677 10.746.421 16-3l2.688-1.75c3.024-2.943 4-5.241 5.312-9.25z" id="svg-layer-6" style="pointer-events: all;"/><path fill="#2ABAF6" d="M624 161v7h-2l-.5 3.5c-2.821 12.527-10.44 23.76-18.5 33.5l-1.96 2.422C588.87 221.826 572.488 231.447 555 238h-3v3l11 2v2l17 2c-1.315 3.944-3.612 4.941-7 7l-2.059 1.344c-21.422 13.583-45.192 18.077-69.936 21.201-6.763.855-13.49 1.815-20.204 2.994l-2.083.364C460.06 283.269 442.768 290.77 431 306l-2 3c.8-22.76 5.744-46.538 20-65l2.082-2.738c11.49-14.55 25.452-27.343 42.918-34.262h3v10l1-3h2l1 5 3-5 1 3 1.477-1.906c14.232-17.183 34.165-19.872 54.906-24.34C595.818 183.54 595.818 183.54 623 163l-2-1c2-1 2-1 3-1" id="svg-layer-7" style="pointer-events: all;"/><path fill="#131649" d="m583 410 1.781 1.258c12.225 9.28 18.707 24.962 20.971 39.7 2.008 16.56-.868 31.441-7.701 46.589A33.6 33.6 0 0 0 596 504l2.152.805 2.785 1.07 2.778 1.055C606 508 606 508 607 510l-1.655-.048c-26.138-.643-56.339 1.32-78.97 15.923L523 528l-2-1c1.375-2.5 1.375-2.5 3-5h2v-2l-2.422-.227c-12.56-1.503-22.49-5.856-30.578-15.773-9.864-12.64-11.413-29.591-9.782-45.072 1.937-14.178 6.307-27.28 14.782-38.928l1.43-1.988c9.222-11.75 24.192-17.506 38.57-19.7 16.128-1.468 32.078 1.467 45 11.688m-35 2c2.708 2.083 5.479 3.941 8.375 5.75 12.188 8.165 18.917 22.247 22.23 36.229 2.859 14.614-1.422 28.818-8.335 41.63-1.375 2.428-1.375 2.428-2.27 5.391l-3 1c-1.209 2-1.209 2-2 4l1.836-.184 2.539-.253 2.75-.293q2.807-.266 5.625-.383l2.625-.137 2.398-.078c3.322-1.003 4.347-2.81 6.227-5.672 1.461-3.12 1.461-3.12 2.625-6.437l1.227-3.31L592 486l1.086-2.973c4.983-16.502 1.845-33.8-6.074-48.726-5.333-8.75-11.839-14.782-21.012-19.301l-2.059-1.027c-5.27-2.302-10.259-2.287-15.941-1.973m-37.437 19c-3.609 5.347-5.244 9.42-4.563 16 1.382 3.63 3.284 6.383 6.25 8.938 5.073 1.96 9.19 1.536 14.25 0 6.339-3.076 12.507-8.577 15.5-14.938.699-5.472.548-11.026-2-16-9.94-7.285-22.365-2.999-29.437 6M563 471l-.777 2.055c-4.05 9.847-10.191 18.746-20.22 23.172-8.958 2.306-20.774 2.356-29.003-2.227-5.937-3.78-8.986-8.749-12-15l-5 1c-1.721 5.672.397 8.975 3.066 13.992 4.926 7.663 13.361 14.291 22.282 16.621 13.687 1.996 25.53-.355 36.652-8.613 6.901-6.243 12.373-15.147 13.375-24.5.021-3.623.021-3.623-2.687-5.437-2.671-1.247-2.671-1.247-5.688-1.063" id="svg-layer-8" style="pointer-events: all;"/><path fill="#2AB7F4" d="m338 351 1 2c.822-.07 1.645-.14 2.492-.21 9.933-.483 15.14 1.802 22.692 8.003 5.405 4.956 8.693 10.632 11.816 17.207l1.176 2.393c3.172 6.651 5.302 13.2 7.012 20.357l.748 2.938c4.887 19.913 11.364 62.065-.013 81.115-2.067 2.564-4.453 4.59-6.997 6.67-3.333 2.878-5.525 5.833-7.863 9.527l-1.153 1.793c-2.25 3.666-3.514 7.053-4.535 11.207-1.213 3.8-1.921 4.753-5.488 6.695-1.926.764-3.866 1.444-5.83 2.107C337.735 527.985 325.603 539.937 318 554c-3.388 7.108-5.934 14.409-8 22h-2l-1 5c-7.254-.476-13.268-2.295-20-5v2c-3.232-1.345-4.612-2.464-6.176-5.59l-1.068-2.127-1.068-2.22-1.127-2.21c-2.69-5.465-2.69-5.465-1.561-8.853l4 8-.427-1.916c-1.576-7.718-1.907-15.159-1.885-23.021l-.05-3.592c-.005-9.702.548-20.94 7.362-28.471 6.737-5.347 11.698-7.157 20.313-7.062l3.238.027L311 501l-3-2c5.816.511 10.502 1.669 15.813 4.063l2.082.92c6.319 2.905 11.71 6.616 17.105 11.017l-1-6 2.563-.445c8.088-1.6 14.75-3.367 19.703-10.336 2.937-5.35 4.406-11.3 5.734-17.219l.629-2.785c4.39-23.303 1.814-46.893-10.629-67.215-4.252-5.863-10.078-9.862-17-12-8.93-1.261-16.686-.498-24 5-8.96 8.113-13.607 17.58-17 29-1.482-3.88-.473-6.47.809-10.32l1.252-3.785q.686-2.01 1.377-4.02l.695-2.05C313.873 390.04 324.524 370.835 338 351" id="svg-layer-9" style="pointer-events: all;"/><path fill="#105CBB" d="m760 704 1.75 1.813c4.703 3.165 9.754 4.03 15.25 5.187l-2 2 8 4-1 3 2.197.841c2.656 1.098 5.127 2.332 7.655 3.698C815.707 737.85 815.707 737.85 842 744l1-2 3 2c-1.932 5.795-8.9 7.92-14.074 10.582C800.504 769.27 763.864 763.334 732 753c12.268 12.268 34.735 16.068 51 19v3c-27.136 11.15-56.447 12.362-85 5a64 64 0 0 1-4-2l1-1-3.516-1.504C677.587 769.485 665.537 762.946 654 753l-2.242-1.836c-1.627-1.34-3.2-2.745-4.758-4.164v-2h-2a121 121 0 0 1-4.937-6.187l-1.342-1.752c-5.008-6.605-5.008-6.605-6.721-10.061l1-3 2.352 1.574c15.679 10.123 35.039 17.222 53.945 14.04 2.031-.507 2.031-.507 4.703-1.614l2.313-.687c2.75-2.14 2.957-5.03 3.687-8.313a654 654 0 0 1 7.945 3.219c13.278 5.35 29.76 9.195 43.805 4.156 5.189-2.497 7.785-5.724 10.563-10.75 2.003-7.65-.043-14.275-2.313-21.625" id="svg-layer-10" style="pointer-events: all;"/><path fill="#105BBA" d="M730 425c12.134 14.027 14.132 44.734 17.705 62.28.682 3.34 1.377 6.677 2.072 10.015q.656 3.198 1.309 6.396l.63 3.011c.185.917.37 1.833.559 2.777l.5 2.435C753 514 753 514 752 517l-6-1 1.242 2.047 1.633 2.703 1.617 2.672C752 526 752 526 752.906 528.282c.968 1.942.968 1.942 3.258 2.327l2.461.141 2.477.172L763 531v1l-5 1-1 3h-4q1.996 5.377 4 10.75l1.23 3.297a622 622 0 0 0 7.011 17.93c6.653 16.224 10.72 32.57 14.266 49.727.454 2.112.955 4.204 1.493 6.296a128 128 0 0 1-8.187-8.687C758.217 598.618 738.933 583.477 717 578a348 348 0 0 0-7 0q-3.532-1.425-7-3c-5.864-1.334-11.888-1.338-17.875-1.562l-3.242-.131A3138 3138 0 0 0 674 573c2.165-2.39 4.115-3.692 7.063-4.98l2.399-1.077 2.538-1.13c14.102-6.495 27.541-15.066 34-29.813 2.171-6.695 2.143-15.166-.5-21.687-2.291-4.468-5.447-8.246-8.695-12.051-3.82-4.787-3.82-4.787-3.782-8.551 1.432-3.975 3.965-6.825 6.602-10.086C727.712 465.462 730.63 447.555 730 425" id="svg-layer-11" style="pointer-events: all;"/><path fill="#121447" d="M350.766 401.418c12.739 9.02 18.94 23.622 21.613 38.68 2.62 18.14 2.432 42.91-7.688 58.98-4.033 5.203-8.917 8.286-15.425 9.383-2.425.253-4.83.44-7.266.539l1.063 1.813C344 513 344 513 343 516l-2.02-1.574c-6.367-4.818-12.551-8.508-19.98-11.426l-2.2-.898c-6.71-2.506-13.723-3.246-20.8-4.102 2.762-2.762 5.207-2.579 9-3l-1.242-3.113q-.818-2.1-1.633-4.2l-.816-2.033c-3.705-9.624-4.678-19.212-4.622-29.466l.013-3.18c.117-8.04.946-15.284 3.3-23.008l.809-2.898c3.751-11.906 11.777-21.505 22.316-28.04 8.324-3.028 18.103-2.115 25.64 2.356m-31.106 17.36c-11.41 15.276-13.968 36.188-11.314 54.623.87 4.654 2.176 9.099 3.654 13.599.23.926.461 1.851.7 2.805.805 2.601 1.472 4.168 3.3 6.195 3.182 1.637 6.333 2.777 9.738 3.871 2.977 1.03 5.132 2.159 7.7 3.942 3.265 2.218 5.552 2.688 9.562 2.187v-2l-1.941-.777c-9.343-4.135-13.787-9.923-17.872-19.16-6.603-17.335-6.002-35.865 1.016-53 3.192-6.787 6.854-12.676 13.797-16.063 1.985-.711 3.982-1.39 6-2v-3c-10.296-.681-17.188 1.104-24.34 8.777M337 427c-3.197 4.85-3.447 8.365-3 14 1.116 4.465 3.085 6.597 7 9 3.165.31 5.147.427 8-1v-2l1.875-.625c3.095-2.003 3.334-3.816 4.125-7.375.622-5.482-.032-9.205-3-14-1.982-2.405-1.982-2.405-5.812-2.375-4.224.122-6.271 1.208-9.188 4.375m-13 41c-1.878 5.635 1.683 11.756 4 17 4.052 6.75 9.38 12.46 17 15 8.386.852 8.386.852 16.063-1.875 2.587-4.173 4.328-8.497 5.937-13.125-3.07-.248-3.07-.248-5.625 1.5-4.969 2.208-9.433 2.496-14.625.738-3.785-1.76-6.79-3.427-8.75-7.238a153 153 0 0 1-2-7 570 570 0 0 0-3-9c-4.053 0-5.822 1.582-9 4" id="svg-layer-12" style="pointer-events: all;"/><path fill="#D7832D" d="m455 666 .727 1.785c1.526 2.656 3.17 3.87 5.648 5.653 6.956 5.304 6.956 5.304 8.625 8.562-.421 2.948-1.033 5.218-2 8q-.884 2.81-1.75 5.625l-1.05 3.355c-1.777 5.828-3.3 11.73-4.83 17.626-1.372 5.162-2.977 10.154-4.823 15.167-2.619 7.2-4.532 14.48-6.36 21.914q-1.026 4.073-2.07 8.141l-.527 2.06a738 738 0 0 1-5.777 21.05l-.935 3.332c-1.638 5.57-3.441 10.267-6.82 15.013-1.172 1.702-1.172 1.702-1.57 3.854C431 809 431 809 428.882 810.301l-2.758 1.011-2.68 1.051c-8.247 1.525-16.694-.675-24.683-2.77l-2.868-.728a1799 1799 0 0 1-6.063-1.554c-5.384-1.39-10.776-2.75-16.167-4.116l-3.28-.833c-9.584-2.428-19.195-4.732-28.822-6.987l-11.402-2.682a4254 4254 0 0 1-26.516-6.35q-2.66-.644-5.319-1.283c-29.843-7.178-29.843-7.178-34.325-13.06q-1.404-1.627-2.812-3.25C259 766 259 766 259 765c6.93.611 13.43 1.931 20.168 3.633l3.289.815q3.524.874 7.047 1.756c5.679 1.42 11.361 2.825 17.043 4.23l6.006 1.489a7998 7998 0 0 0 42.5 10.388q5.136 1.244 10.27 2.493 4.766 1.156 9.532 2.31l3.468.843 3.209.775 2.776.672c10.495 2.322 18.873 2.491 28.692-2.404 9.232-5.959 11.96-14.913 14.629-25.133l.7-2.6q.741-2.76 1.473-5.523c1.305-4.923 2.634-9.839 3.96-14.756l.816-3.035c2.688-9.985 5.48-19.94 8.297-29.89l.695-2.458c2.12-7.5 4.25-14.999 6.414-22.488l.86-2.98q.742-2.568 1.495-5.13c1.155-3.983 2.077-7.9 2.661-12.007" id="svg-layer-13" style="pointer-events: all;"/><path fill="#F5B541" d="m317.55 626.629 2.576.529q2.858.588 5.714 1.184c3.406.71 6.813 1.411 10.22 2.112q10.601 2.184 21.2 4.383l10.1 2.093L387 641v2l-24.35 11.306a2249 2249 0 0 0-7.055 3.287 442 442 0 0 1-18.572 8.147c-5.382 2.243-10.7 4.632-16.023 7.01l-3.562 1.587a5970 5970 0 0 0-21 9.413l-2.395 1.077q-6.09 2.738-12.168 5.505l-4.937 2.23-2.294 1.052C269.34 696 269.34 696 266 696c.566-5.41 1.528-10.445 3.11-15.656l.632-2.138c.663-2.237 1.336-4.471 2.008-6.706l1.305-4.398c1.081-3.642 2.178-7.279 3.282-10.913q1.009-3.34 2.003-6.682.652-2.153 1.305-4.304l.586-1.987c2.443-7.962 6.537-13.198 13.769-17.216 7.69-2.563 15.804-1.005 23.55.629" id="svg-layer-14" style="pointer-events: all;"/><path fill="#FADC9C" d="M336 666c-1.842 3.907-4.213 7.331-6.66 10.879-2.858 4.524-2.806 8.943-2.34 14.121 1.013 4.317 2.368 8.042 4.813 11.75 1.187 2.25 1.187 2.25.625 4.563-.475.886-.95 1.773-1.438 2.687q-1.065 2.155-2.125 4.313-.934 1.846-1.875 3.687l-2.496-.23c-4.523.297-7.573 1.883-11.567 3.918q-2.525 1.24-5.054 2.472l-2.812 1.372c-5.87 2.806-11.817 5.443-17.759 8.093l-1.897.848C258.472 746.509 258.472 746.509 254 748c-1.209 2-1.209 2-2 4-1.013-11.605 1.98-21.35 5.375-32.312q1.15-3.81 2.292-7.623.707-2.352 1.43-4.698c1.457-4.758 2.732-9.53 3.903-14.367l1 3 1.898-.835 29.696-13.063 3.197-1.406 6.27-2.755c4.82-2.12 9.636-4.249 14.439-6.41l2.543-1.142q2.33-1.047 4.654-2.105C333.779 666 333.779 666 336 666" id="svg-layer-15" style="pointer-events: all;"/><path fill="#F0B140" d="M426.129 491.762c3.416 2.26 6.666 4.69 9.871 7.238l2.688 2.063C441 503 441 503 443.16 505.43c3.85 3.484 7.815 4.7 12.664 6.33 1.973.713 1.973.713 5.176 2.24.953 2.184.953 2.184 1 4l-2.527.121c-9.538.885-13.322 3.835-19.473 10.879-7.948 6.292-15.915 7.211-25.697 7.668-12.97.617-24.746 4.02-34.303 13.332a487 487 0 0 0-3 4c-2 0-2 0-3.625-1.02-2.123-3.057-1.64-6.11-1.375-9.668l.155-2.273c1.655-18.904 10.092-33.186 23.908-45.914 9.286-7.699 19.064-9.653 30.066-3.363" id="svg-layer-16" style="pointer-events: all;"/><path fill="#105CBB" d="M598 653h1c-.01.668-.02 1.337-.032 2.025C598.456 692.8 605.936 724.613 632 753l1.797 2.047C648.526 770.99 669.988 780.796 690 788v2a3827 3827 0 0 1-11.25 6.438l-3.223 1.853-3.105 1.768-2.857 1.634c-2.276 1.16-4.042 1.984-6.565 2.307a63 63 0 0 1-7.25-3.187l-2.124-1.085C633.006 788.787 613.593 770.608 604 749v-2h-2a3055 3055 0 0 1-2.852-9.309 245 245 0 0 0-2.234-6.851c-8.68-25.813-3.3-51.752 1.086-77.84" id="svg-layer-17" style="pointer-events: all;"/><path fill="#F8DC9C" d="M387 641c5.635.645 11.15 1.538 16.707 2.672l2.443.498q2.543.52 5.085 1.049 2.568.53 5.14 1.04c9.758 1.943 18.786 3.961 27.625 8.741l2 1 1-2 2 6c-4.8 3.426-9.743 5.862-15.125 8.25l-2.783 1.25a2870 2870 0 0 1-8.153 3.638q-3.188 1.418-6.375 2.84-11.884 5.302-23.779 10.58l-2.065.918q-1.928.855-3.86 1.703-1.901.84-3.794 1.701C380.19 692.167 378.19 693 375 693l-.48 1.758c-2.242 7.504-5.297 12.146-12.207 16.117C358.336 713 358.336 713 356 713l-1 3-1-5 2.703-1.469c8.378-4.73 12.19-8.212 15.297-17.531.996-7.753-.695-13.519-5-20-4.827-5.088-11.098-7.142-18-7.375-4.858.135-8.58 1.41-13 3.375v-3l3.418-1.398c10.759-4.445 21.3-9.235 31.777-14.305C384.283 643 384.283 643 387 643z" id="svg-layer-18" style="pointer-events: all;"/><path fill="#111346" d="M361.738 666.672C367.6 670.113 371.04 675.576 373 682c.962 7.135-.282 12.849-4 19-2.814 3.537-5.763 5.506-9.676 7.64l-2.454 1.345L355 711l.016 2.814q.025 5.16.039 10.32.008 2.235.02 4.47c.013 2.14.018 4.28.023 6.42l.016 3.903C355 742 355 742 354 744c-7.274-.718-14.266-2.331-21.375-4l-3.598-.828c-8.758-2.037-8.758-2.037-11.027-3.172.513-4.973 2.196-8.602 4.75-12.812l1.082-1.852a313 313 0 0 1 4.879-8.07c2.746-4.186 2.746-4.186 2.789-8.953L330 702c-1.937-3.719-3.514-6.819-4-11l-.23-1.96c-.466-7.176 1.931-13.243 6.652-18.677 8.706-7.793 19.02-8.282 29.316-3.691" id="svg-layer-19" style="pointer-events: all;"/><path fill="#EDF0F0" d="M318.5 618.125q3.81.97 7.625 1.93l1.956.494c8.256 2.07 16.593 3.73 24.937 5.409a642 642 0 0 1 19.38 4.216c4.232.97 8.474 1.889 12.72 2.799l2.406.516a8603 8603 0 0 0 9.854 2.107q3.651.78 7.302 1.564l2.22.47c4.425.953 8.75 2.11 13.1 3.37q2.993.517 6 .938c7.796 1.271 14.858 3.67 20 10.062v4c-3.177-1.007-6.204-2.092-9.245-3.464-3.68-1.588-7.345-2.478-11.275-3.298l-2.178-.459q-3.555-.742-7.115-1.466l-5.066-1.053c-13.24-2.737-26.52-5.264-39.81-7.752-14.617-2.739-29.158-5.76-43.676-8.983l-2.224-.491q-2.944-.654-5.886-1.313c-14.752-3.055-14.752-3.055-28.79.931-8.883 6.902-10.803 18.024-13.735 28.348l-1.19 4.155c-2.663 9.281-2.663 9.281-5.295 18.57l-.635 2.246q-.587 2.079-1.169 4.158c-1.2 4.245-2.548 8.423-3.957 12.603-2.03 6.107-3.81 12.295-5.625 18.468q-.751 2.541-1.519 5.078c-3.01 9.964-5.466 19.24-5.61 29.722h2l1 5c-5.207-2.38-8.009-5.724-10-11-2.509-12.296 2.389-24.264 6.066-35.827 2.48-7.828 4.752-15.717 7.042-23.602q1.152-3.951 2.313-7.898c2.267-7.71 4.521-15.423 6.684-23.163.875-3.125 1.761-6.246 2.648-9.367q.613-2.174 1.207-4.353c2.44-8.96 4.908-16.557 12.27-22.63l1.957-1.097 1.981-1.153c9.667-4.802 21.494-1.415 31.332 1.215" id="svg-layer-20" style="pointer-events: all;"/><path fill="#28B3F2" d="M601 273c2.826.971 2.826.971 5.754 2.352l3.308 1.559 3.5 1.714 1.803.874C632.192 287.7 647.473 298.236 662 310l2.427 1.923C680.497 324.805 695.632 339.757 707 357l1.57 2.352c17.153 25.932 29.987 54.567 35.77 85.178.767 4.03 1.57 8.053 2.375 12.075 2.885 14.493 5.645 28.994 8 43.584 1.235 7.647 2.682 15.232 4.285 22.811l-2-1v-3l-3-1q-.507-2.593-1-5.187l-.562-2.918c-.407-2.692-.485-5.18-.438-7.895-.488-2.442-1.23-4.772-1.942-7.161-1.042-3.78-1.858-7.54-2.617-11.386-9.048-44.83-22.304-91.23-51.441-127.453l-2.367-3c-12.53-15.608-26.22-30.441-42.633-42l-1.72-1.216C630.66 296.742 611.277 286.904 590 279c4.57-6.452 4.57-6.452 11-6" id="svg-layer-21" style="pointer-events: all;"/><path fill="#A1BED2" d="M449 543c2.975.33 3.996.996 6.148 3.152C468.293 562.594 474.897 578.642 473 600c-1.08 7.135-3.037 14.067-5 21l-.958 3.44c-1.01 3.59-2.05 7.17-3.104 10.747l-.995 3.46-.978 3.208-.856 2.864C459.8 647.41 458.766 648 456 649c.966-8.342 3.16-16.034 5.745-23.983 5.465-16.82 10.161-35.915 3.255-53.017-.87 2.612-1.16 4.32-1.29 7.008C462.34 600.95 455.145 621.35 448 642c-5.07-.654-9.42-2.855-14-5l4.248-15.791.928-3.447.922-3.45q.863-3.172 1.787-6.328c1.61-5.54 2.639-10.583 2.553-16.359l-.02-2.18c-.23-8.045-1.863-16.301-6.73-22.883C436 564 436 564 436 561c1.98-5.942 5.206-9.19 10-13 1.79-2.619 1.79-2.619 3-5m5 16c-2.26.845-2.26.845-2.902 3.445-.143 5.208 2.005 8.863 4.34 13.43l1.314 2.664A563 563 0 0 0 460 585c2.79-5.232 2.73-10.163 2-16-1.232-3.336-2.701-6.274-5-9z" id="svg-layer-22" style="pointer-events: all;"/><path fill="#1777CE" d="M383.25 580.688 386 581c1.763 3.06 2.233 5.366 2.375 8.875.65 7.389 4.443 11.25 9.844 15.926 1.721 1.31 1.721 1.31 3.812 1.68 1.969.519 1.969.519 3.262 1.921 2.574 2.41 5.718 3.143 9.02 4.16l1.974.631q2.855.91 5.713 1.807 3.002.993 6 2l.805-2.371 1.07-3.067 1.055-3.058C432 607 432 607 434 606c-1.164 10.142-3.757 19.358-7 29-11.473-1.829-22.804-4.179-34.158-6.63q-3.492-.75-6.988-1.478c-3.385-.706-6.764-1.433-10.143-2.165l-3.169-.648-2.916-.647c-.847-.18-1.695-.36-2.568-.547C365 622 365 622 363.698 620.048c-.892-2.617-.558-3.992.173-6.646l.731-2.664.836-2.8c.275-.944.55-1.888.835-2.86 2.23-7.245 4.989-13.106 9.727-19.078l2.008-2.762C380 581 380 581 383.25 580.688" id="svg-layer-23" style="pointer-events: all;"/><path fill="#115FBD" d="m568 272 1 2c2.122.356 2.122.356 4.625.438 4.747.368 8.134 1.442 12.375 3.562v2c-11.458 9.773-26.381 14.006-40.5 18.375l-2.424.76c-7.588 2.256-15.162 3.073-23.076 2.865l-1 2-2.25-.062c-2.52.057-4.331.44-6.75 1.062q-2.864.544-5.734 1.05c-12.548 2.255-24.957 4.615-37.266 7.95a614 614 0 0 1-4 1l2-7c-3.377.537-6.697 1.11-10 2 12.188-14.644 40.957-18.226 58.691-20.668 19.24-2.654 37.06-8.418 54.309-17.332" id="svg-layer-24" style="pointer-events: all;"/><path fill="#1879CF" d="M563 244c4.147.276 8.292.574 12.438.875l3.587.238 3.409.254 3.158.222L588 246l1 2c-25.007 19.041-49.715 29.676-80.722 34.802-30.524 5.055-59.408 14.525-78.282 40.764L429 325l-2-1c-1.303-4.3-1.291-8.556-1-13l3-2 1.25-2.125c6.172-10.14 14.558-16.088 25.125-21l2.048-.984c14.449-6.42 30.942-7.8 46.475-9.673 25.87-3.155 57.118-8.836 76.102-28.218l-3.437.125c-4.707.017-9.026-.949-13.563-2.125z" id="svg-layer-25" style="pointer-events: all;"/><path fill="#E6EEF4" d="M548 412c9.924-.988 18.22 2.099 26.313 7.813C586.044 429.435 593.077 442.966 595 458c1.007 15.79-1.577 31.893-11 45-1.973 1.973-5.545 1.719-8.25 2.063l-2.027.275c-3.598.47-7.095.767-10.723.662 1.375-2.5 1.375-2.5 3-5h2l.852-2.227c1.036-2.503 2.217-4.778 3.523-7.148 7.237-14.496 9.119-30.164 4.029-45.627-4.787-13.143-12.227-24.971-24.966-31.498L548 413z" id="svg-layer-26" style="pointer-events: all;"/><path fill="#A8C3D5" d="M422 278c-.485 6.31-.485 6.31-2.422 8.906-3.846 3.123-8.16 5.137-12.578 7.344-8.069 4.135-15.675 8.381-23 13.75l-3.187 2.328C373.096 316.068 365.93 322.335 359 329l-1.87 1.788c-7.559 7.26-14.536 14.3-20.13 23.212q-1.505 2.269-3.02 4.531C324.048 373.455 315.883 388.042 310 405c-.97-3.395-1-6.47-1-10h-2c-.693-8.056 1.396-13.002 5.25-20l1.64-3.049C327.57 347.045 347.787 322.544 371 306l3.031-2.184C410.351 278 410.351 278 422 278" id="svg-layer-27" style="pointer-events: all;"/><path fill="#105CBB" d="M368.563 559.938c3.154 1.375 3.957 3.024 5.437 6.062 3.73-.502 7.361-1.042 11-2l-1 3.563c-.967 3.888-1.322 7.415-1 11.437l2 2c-.752.07-1.503.142-2.277.215-3.513 1.013-4.297 2.326-6.286 5.347l-1.69 2.504c-3.898 6.549-6.555 12.876-8.497 20.246l-.668 2.417c-.874 3.225-1.582 5.91-1.582 9.271-7.907-.645-15.391-2.87-23-5 2.06-9.651 4.511-19.135 7.438-28.562l.836-2.772c2.64-8.318 6.276-14.712 12.726-20.666l2-2.375c2-1.625 2-1.625 4.563-1.687" id="svg-layer-28" style="pointer-events: all;"/><path fill="#105AB8" d="m435 582 3 1c.508 10.856-.373 19.638-4 30-.553-2.076-1-3.844-1-6l-5 12-1-2-5 1v-2l-1.906-.297c-6.036-1.054-10.738-2.728-16.094-5.703v-2l-2.21-.277c-5.498-1.425-10.095-5.966-13.036-10.75-1.933-4.672-2.022-8.968-1.754-13.973l1.582.55c2.465.843 4.94 1.65 7.418 2.45l2.59.867c11.21 3.457 21.788 3.435 32.41-1.867l2.121-1.7z" id="svg-layer-29" style="pointer-events: all;"/><path fill="#121447" d="M757 652c8.92 4.46 13.349 13.08 17 22 1.537 5.304 1.207 9.914-1 15-4.76 5.277-10.315 7.2-17 9l1.242 1.941c4.537 7.283 8.11 14.2 6.758 23.059-2.358 7.234-6.674 11.18-13.312 14.813-14.052 4.701-31.893.422-44.91-5.274-4.534-2.512-8.162-5.859-11.778-9.539 2.812 0 4.319.333 6.914 1.242l2.309.793 4.734 1.656c8.764 3.01 16.817 4.67 26.106 4.684l2.564.074c5.949.028 10.404-1.1 15.373-4.449 3.28-3.587 3.474-7.07 3.273-11.75-1.282-10.554-10.491-19.62-17.273-27.25l3.313.5c8.415 1.013 15.985 1.421 23.687-2.5 2.446-2.752 2.42-6.049 2.313-9.664-1.038-7.757-4.584-14.321-9.141-20.559C757 654 757 654 757 652" id="svg-layer-30" style="pointer-events: all;"/><path fill="#DDE8F1" d="M344 410v3c-.592.23-1.183.461-1.793.7-5.061 2.088-8.586 4.058-12.207 8.3l-1.973 2.27c-2.17 2.922-3.378 5.577-4.652 8.98l-1.227 3.203c-2.37 7.323-3.515 14.162-3.46 21.86l.014 2.513c.128 6.734 1.058 12.796 3.298 19.174l1.066 3.113c3.274 8.677 7.196 15.464 15.872 19.387 1.346.521 2.697 1.03 4.062 1.5v2c-5.177.647-7.527-.765-11.586-3.602-2.93-1.697-5.862-2.488-9.101-3.46-3.74-1.388-5.79-2.22-8.153-5.465-1.351-3.126-2.3-6.18-3.16-9.473l-.95-2.898c-5.694-19.637-2.327-40.28 7.095-58.059 6.59-10.81 14.48-13.647 26.855-13.043" id="svg-layer-31" style="pointer-events: all;"/><path fill="#F1F5F8" d="M537.074 422.727c2.389 1.422 3.743 2.828 4.801 5.398L542 431l.254 2.262c.434 6.037-.596 9.399-4.547 13.988-5.32 5.454-10.858 9.735-18.77 10.188-4.54-.505-6.53-1.427-9.937-4.438-2.933-4.4-3.698-7.765-3-13 2.39-6.515 5.238-11.12 11-15l2.625-1.812c5.528-1.946 11.833-2.429 17.45-.461" id="svg-layer-32" style="pointer-events: all;"/><path fill="#ACC7D8" d="m306 388 2 1-1 6h2c2.38 9.22-1.723 18.71-4.88 27.365-1.857 5.246-2.675 10.083-3.12 15.635h-2l-.13 2.089c-.563 7.81-1.697 15.44-3.027 23.155C292.46 480.03 292.46 480.03 292 497l3 2-1.875.875c-2.258 1.062-2.258 1.062-4.125 3.125-3.625.125-3.625.125-7 0-1.255-4.518-1.255-4.518-.068-6.763 1.409-2.95 1.528-5.526 1.779-8.784l.327-3.963c.055-.691.11-1.383.165-2.095 2.578-32.196 8.723-63.692 21.797-93.395" id="svg-layer-33" style="pointer-events: all;"/><path fill="#26ADEE" d="M715 581c5.981.434 9.774 2.237 14.75 5.5l2.124 1.366c6.072 3.969 11.7 8.315 17.126 13.134l1.614 1.431c6.553 5.843 12.851 11.735 18.386 18.569l2.629 3.156c13.143 15.94 23.991 33.253 34.613 50.933 2.903 4.806 5.86 9.578 8.82 14.348A4297.055 4297.055 0 0 0 826 707l-3 1c-7.9-11.032-15.742-22.08-23.234-33.396-3.152-4.738-6.454-9.346-9.836-13.924-2.062-2.864-3.999-5.79-5.93-8.742-3.705-5.594-7.737-10.763-12-15.938q-1.476-1.866-2.95-3.734c-15.132-19.024-32.174-35.462-52.355-49.024L715 582z" id="svg-layer-34" style="pointer-events: all;"/><path fill="#F0B44C" d="M453 656c7.85 3.659 14.651 9.468 19 17 3.347 11.208-.578 22.162-3.687 32.938l-1.48 5.254c-4.28 15.157-8.744 30.265-13.26 45.354-2.336 7.813-4.655 15.62-6.741 23.505l-.933 3.506a376 376 0 0 0-1.545 6.091c-1.868 7.128-5.16 12.158-10.354 17.352h-3a70 70 0 0 1 3.885-8.543c2.39-4.76 3.807-9.65 5.209-14.773l.828-2.952c.867-3.096 1.723-6.195 2.578-9.294q.86-3.08 1.723-6.159c2.39-8.555 4.747-17.117 7.004-25.709a193 193 0 0 1 4.648-15.133c3.265-9.493 5.878-19.145 8.4-28.859a88 88 0 0 1 1.673-5.281c1.889-5.06 1.889-5.06 1.052-10.207-2.17-2.268-4.364-3.829-7-5.528-5.768-4.363-6.63-8.834-7.695-15.78z" id="svg-layer-35" style="pointer-events: all;"/><path fill="#9ABBD1" d="M623 163c-4.412 10.68-21.582 16.204-31.578 20.559-12.107 4.825-25.03 7.25-37.72 10.033-6.33 1.391-12.64 2.839-18.913 4.47l-3.533.918C520.285 202.415 511.997 209.095 505 218c-1-2-1-2-.387-4.254 1.71-3.385 3.988-5.958 6.575-8.684l1.51-1.603A480 480 0 0 1 517 199l1.86-1.937c9.056-8.61 22.136-10.354 33.94-12.515 4.478-.825 8.944-1.706 13.41-2.587l2.628-.517c17.741-3.52 32.97-9.186 49.043-17.53C620 163 620 163 623 163" id="svg-layer-36" style="pointer-events: all;"/><path fill="#A2C0D4" d="M505 194c-.67 4.589-1.761 8.925-3.062 13.375l-1.098 3.773L500 214h-2l-1 4c-1.35-4.05-.62-6.792 0-11-22.744 7.171-42.494 27.122-53.441 47.71a227 227 0 0 0-5.122 10.852C437 268 437 268 434.91 268.653L433 269c-.459-7.223.599-11.67 4-18l1.66-3.223C449.572 227.228 479.565 194 505 194" id="svg-layer-37" style="pointer-events: all;"/><path fill="#29B9F5" d="M631 602c0 3.86-1.355 5.792-3.187 9.188C621.97 622.445 618.518 634.4 617 647l-.336 2.727c-2.523 23.662 1.217 47.048 10.516 68.902L628 721l-1 2-1-3-3 1c-13.876-26.237-19.052-53.834-12-83 .904-2.926 1.9-5.753 3.043-8.594.908-2.282 1.593-4.548 2.27-6.906 2.72-8.223 7.614-15.497 14.687-20.5" id="svg-layer-38" style="pointer-events: all;"/><path fill="#208AD8" d="M360 542c2.786 4.18 4 6.934 4 12-1.828 1.633-1.828 1.633-4.25 3.125l-2.39 1.508C355 560 355 560 352.917 560.937c-9.242 5.12-12.757 18.032-15.523 27.407q-.83 2.92-1.645 5.843l-.783 2.808c-1.52 5.68-2.464 11.146-2.967 17.005l-12-2 2-1c.51-2.075 1.007-4.155 1.433-6.25 4.915-23.828 10.883-44.797 31.18-59.664 2.2-1.399 2.2-1.399 5.387-3.086" id="svg-layer-39" style="pointer-events: all;"/><path fill="#EBEDE8" d="M420.188 483.625C427.09 487.391 432.33 491.649 437 498l-1 2-2.492-1.898c-7.967-5.902-14.513-9.674-24.758-8.977-10.585 2.47-21.463 14.113-27.29 23.094-5.866 11.168-8.717 24.198-8.46 36.781h-2c-3.805-10.894-5.343-22.899-.254-33.61L372 513l1.285-2.703c8.524-17 26.753-36.182 46.902-26.672" id="svg-layer-40" style="pointer-events: all;"/><path fill="#D6832D" d="M462 516c3 1 3 1 4.25 3.125 1.927 7.387-1.363 12.404-4.973 18.715L460 540c-3.326-1.526-4.956-2.933-7-6l4-7h4l-2-4c-3.316-.428-3.316-.428-7 0-2.464 2.164-2.464 2.164-4.375 5.125-5.34 7.07-10.989 11.577-19.625 13.875-3.512.42-7.034.638-10.562.875C403.593 544 393.566 547.011 382 555a356 356 0 0 1-5 3c-2.062-2.312-2.062-2.312-4-5l1-3 1 4 2-2.125c10.602-10.513 22.404-15.57 37.204-16.157 12.481-.52 20.701-2.823 29.65-11.833 3.611-3.624 6.449-5.67 11.603-6.08l2.356.07 2.394.055L462 518z" id="svg-layer-41" style="pointer-events: all;"/><path fill="#A4BFD0" d="M359 531h1c1.083 3.802 1.622 7.07 1 11-2.363 2.515-4.897 4.093-7.812 5.934-16.122 10.451-20.907 25.478-24.989 43.144-1.596 6.8-3.858 13.346-6.199 19.922l-12-1 4-1 .625-3.875c1.496-7.502 4.12-14.64 6.608-21.857a270 270 0 0 0 2.06-6.377C328.964 558.752 338.3 546.542 354 536l2.293-1.062c2.066-.884 2.066-.884 2.707-3.938" id="svg-layer-42" style="pointer-events: all;"/><path fill="#1877CE" d="M622 168h1c.572 18.765-9.573 40.006-22.087 53.583-11.278 11.766-25.809 16.504-41.67 19.022-2.402.366-2.402.366-5.243 1.395l-2-1v-3l2.79-1.031c12.905-4.893 24.64-10.967 35.21-19.969l2.383-1.91c14.28-11.976 24.519-29.246 29.617-47.09" id="svg-layer-43" style="pointer-events: all;"/><path fill="#1D84D4" d="M560.938 483.188c2.37.933 4.1 2.2 6.062 3.812-.383 6.13-4.506 10.71-8.86 14.707-10.443 8.25-21.029 10.161-34.14 9.293-3.212-.74-5.942-1.734-9-3 .75-7.625.75-7.625 3-11 1.996-.261 1.996-.261 4.438-.117l2.698.109 2.864.133c9.417.21 15.812-.484 23.035-6.945a83 83 0 0 0 3.492-3.63c3.465-3.648 3.465-3.648 6.41-3.363" id="svg-layer-44" style="pointer-events: all;"/><path fill="#E8F0F5" d="M360 527c-.164 3.262-.164 3.262-1 7-2.336 2.082-2.336 2.082-5.375 3.813-17.51 10.875-24.981 24.42-30.786 43.462-1.328 4.313-2.721 8.606-4.105 12.902-1.588 4.937-3.162 9.88-4.734 14.823h-6c1.317-8.397 3.332-16.555 5.612-24.733a629 629 0 0 0 1.671-6.199c5.711-20.892 16.073-36.79 34.967-48.103 3.367-1.857 5.891-2.965 9.75-2.965" id="svg-layer-45" style="pointer-events: all;"/><path fill="#1D84D5" d="M753 536h5c2.063 3.634 4.045 7.306 6 11l1.676 3.156c8.522 17.084 13.051 35.81 17.261 54.344l.454 1.982c1.698 7.485 3.101 14.852 3.609 22.518-3 0-3 0-4.5-1.437-4.21-7.194-5.509-15.764-7.25-23.813-4.132-18.34-10.29-35.386-17.606-52.691l-1.386-3.305-1.246-2.928c-1.053-2.94-1.592-5.736-2.012-8.826" id="svg-layer-46" style="pointer-events: all;"/><path fill="#3085D1" d="m333 464 1.313 3.938.847 2.48a82 82 0 0 1 1.461 5.008c1.416 5.232 3.048 7.786 7.66 10.699 4.48 2.28 8.804 2.483 13.719 1.875 2.893-1.093 5.311-2.436 8-4l1 2c-1.11 2.75-1.11 2.75-2.75 6l-1.61 3.25C361 498 361 498 358 500c-9.151.94-15.322-.022-22.562-5.687-6.722-6.056-10.802-14.437-12.438-23.313 1.01-3.029 1.806-3.861 4.438-5.75C330 464 330 464 333 464" id="svg-layer-47" style="pointer-events: all;"/><path fill="#2089D8" d="M464 570c5.039 5.039 5.242 12.861 5.375 19.625-.163 13.822-3.871 26.606-7.953 39.691-1.5 4.843-2.7 9.71-3.781 14.664L457 646l-2 1c-1.945-.777-1.945-.777-4.125-1.937l-2.195-1.153L447 643l.531-1.623c2.21-6.776 4.355-13.57 6.469-20.377l.986-3.157c4.213-13.646 7.011-26.6 7.857-40.864.189-2.377.601-4.662 1.157-6.979" id="svg-layer-48" style="pointer-events: all;"/><path fill="#105DBB" d="M282 589a168 168 0 0 1 13.203 12.266c1.883 1.92 1.883 1.92 4.797 3.734l-1 3-2.238.227c-8.6 1.114-16.537 3.258-22.64 9.78-7.987 11.17-10.503 25.975-14.122 38.993-1.46-2.647-2-3.894-2-7h2l-.187-3.187c.122-17.641 8.85-37.728 19.187-51.813h2c1.15-1.925 1.15-1.925 1-4z" id="svg-layer-49" style="pointer-events: all;"/><path fill="#105CBB" d="M480 585h1l1 12h2c2.32 13.257 2.587 26.076 1.125 39.438l-.237 2.243c-.22 1.784-.545 3.555-.888 5.319-3.008 1.504-5.35.608-8.625.063l-3.602-.59L469 643l-1 2c1.671-8.016 3.852-15.868 6.063-23.75q1.082-3.867 2.16-7.734l.96-3.43c1.087-4.108 1.907-8.048 2.133-12.293l.127-2.275.12-2.33.13-2.39q.158-2.898.307-5.798" id="svg-layer-50" style="pointer-events: all;"/><path fill="#D6832D" d="M424.512 561.523c2.863 1.7 4.346 3.419 6.3 6.102l1.833 2.477L434 572c-1.392 3.383-2.803 4.837-5.937 6.688l-2.09 1.261c-7.86 4.187-17.98 2.646-26.16.176-3.378-1.124-5.84-2.142-8.813-4.125v-2l2.098-.156c9.738-1.13 19.597-5.154 27.027-11.723C422 561 422 561 424.512 561.523" id="svg-layer-51" style="pointer-events: all;"/><path fill="#E5EDF4" d="M348.063 422.61c1.937.39 1.937.39 4.375 2.702 2.619 4.505 3.096 8.563 2.562 13.688-.734 2.646-1.654 4.557-3 7l-3 1v2c-2.903 1.451-4.773 1.372-8 1-2.929-1.691-5.377-3.709-6.875-6.812L334 441l-.375-3.75c.046-4.935 2.27-8.524 5.375-12.25 3.216-2.144 5.231-2.475 9.063-2.39" id="svg-layer-52" style="pointer-events: all;"/><path fill="#29B8F5" d="m277 585 4 4c-1.302 3.486-2.839 6.537-4.812 9.688C266.58 614.605 260.772 631.48 259 650a335 335 0 0 1-1 6.75l-.437 2.86C257 662 257 662 255 665c-.489-18.193-.368-38.425 8.066-55.11 1.144-2.132 1.144-2.132 1.809-5.702 1.481-6.214 4.446-10.811 9.125-15.188a123 123 0 0 0 3-4" id="svg-layer-53" style="pointer-events: all;"/><path fill="#26ABED" d="M299 438h1l-.048 2.532q-.076 4.758-.117 9.516c-.022 2.02-.06 4.039-.099 6.057-.088 11.972 1.572 22.938 6.494 33.907C307 492 307 492 307 495l-7 2 6 1v1c-1.374.082-2.75.14-4.125.188l-2.32.105c-3.295-.378-5.673-1.702-8.555-3.293 1.168-19.602 4.485-38.712 8-58" id="svg-layer-54" style="pointer-events: all;"/><path fill="#9CBBD0" d="m291 496 2.313.938c4.055 1.168 7.806 1.48 12.003 1.718 2.839.364 5.082 1.177 7.684 2.344v1l-3-.105c-9.324-.233-17.302-.181-24.684 6.457-6.506 8.147-6.49 19.129-6.878 29.023l-.131 3.098q-.159 3.764-.307 7.527h-1c-.945-9.568-.945-18.432 0-28h-2v-3h-2c-1.576 10.438-1.102 19.851 1.02 30.162 1.295 6.504 1.295 6.504-.02 9.838-5.545-15.05-6.742-33.16 0-48 4.612-8.306 4.612-8.306 8-10v2c3.403.677 3.403.677 7 1l2-2 3-1z" id="svg-layer-55" style="pointer-events: all;"/><path fill="#27B1F1" d="M790 722c11.593.606 20.907 1.834 31.084 7.885 2.218 1.291 4.476 2.492 6.744 3.693q2.493 1.335 4.985 2.672l2.412 1.285 2.232 1.23 2 1.088C841 741 841 741 842 744c-7.953-.401-14.246-2.822-21.5-6l-3.445-1.482c-9.278-4.047-18.241-8.546-27.055-13.518z" id="svg-layer-56" style="pointer-events: all;"/><path fill="#1877CE" d="M287 576c4.532.581 8.582 1.814 12.875 3.3 2.35.774 4.684 1.306 7.125 1.7l1-5c1.114 3.318.877 5.248-.215 8.547l-.83 2.558-.892 2.645-.881 2.691A834 834 0 0 1 303 599h-3a94 94 0 0 1-5.437-6.562l-1.448-1.846c-3.101-4.02-5.687-8.133-8.115-12.592h2z" id="svg-layer-57" style="pointer-events: all;"/><path fill="#105CBB" d="M500.02 479.21c3.055 1.218 3.368 3.749 4.644 6.59 2.07 3.41 5 5.375 8.215 7.657C515 495 515 495 518 498l-3 9c-9.558-3.393-14.72-10.326-19.102-19.168-.994-3.135-.982-4.749.102-7.832 2-1 2-1 4.02-.79" id="svg-layer-58" style="pointer-events: all;"/><path fill="#8EB4D0" d="M355 559c-.992 2.894-1.97 4.963-3.925 7.342-6.573 8.42-8.879 20.083-11.825 30.22l-1.207 4.096q-1.097 3.717-2.183 7.438A184 184 0 0 1 334 614l-3-1c1.022-10.994 8.358-54 24-54" id="svg-layer-59" style="pointer-events: all;"/><path fill="#F9FAFA" d="M273 517c2 0 2 0 3.63 1.245 1.728 2.213 1.622 3.083 1.304 5.833l-.229 2.487-.267 2.685c-.742 9.496.267 18.064 2.177 27.372l.572 2.792.543 2.467C281 564 281 564 280 567c-8.006-15.188-12.081-33.169-7-50" id="svg-layer-60" style="pointer-events: all;"/><path fill="#218BD9" d="M552 717c1.132 3.395.98 3.808-.5 6.875-2.803 5.303-6.869 8.248-12.5 10.125-7.07.779-12.952-.144-19-4-2.562-2.75-2.562-2.75-4-5l1.836.438c9.645 2.136 17.004 2.597 26.133-1.563C546 723 546 723 548 723l.875-1.875C550 719 550 719 552 717" id="svg-layer-61" style="pointer-events: all;"/><path fill="#95B9D0" d="M432 263h2l.375 1.938L435 267l2 1-.55 1.695c-3.762 11.998-5.79 23.901-7.02 36.371-.333 3.046-.757 5.951-1.43 8.934-2.488-3.796-2.344-7.68-2.312-12.062l.01-2.384c.227-12.704 2.466-25.446 6.302-37.554" id="svg-layer-62" style="pointer-events: all;"/><path fill="#2087D6" d="M448.21 541.367 450 542c-1.192 4.173-2.948 5.812-6.336 8.398-3.367 3.242-5.436 7.533-7.664 11.602a906 906 0 0 1-3.187-2.687l-1.793-1.512c-2.438-2.174-4.727-4.476-7.02-6.801l2.781-.918c8.251-2.762 8.251-2.762 15.844-6.957C446 541 446 541 448.211 541.367" id="svg-layer-63" style="pointer-events: all;"/><path fill="#1F8EDB" d="M641 745c4.112.534 6.249 1.688 9.375 4.375C665.224 761.614 679.932 770.252 698 777v1c-10.885.555-20.915-5.265-30.375-10.187l-1.965-1.008c-4.539-2.441-4.539-2.441-5.66-5.805-2.277-1.888-2.277-1.888-5.062-3.75-4.903-3.462-9.661-7.022-13.938-11.25z" id="svg-layer-64" style="pointer-events: all;"/><path fill="#E1DECC" d="M354 723c2.675 4.012 2.52 7.28 2.75 12l.168 2.484.129 2.391.12 2.18C357 744 357 744 355 747c-8.56-.437-16.477-1.861-24.75-4.062l-3.305-.854Q322.97 741.055 319 740l-1-4a1174 1174 0 0 1 36 8z" id="svg-layer-65" style="pointer-events: all;"/><path fill="#1C80D3" d="M753 515h2v3l2 1 1 2v-3h2a742 742 0 0 1 2 4.813l1.125 2.707C764 528 764 528 764 531c-3.378.285-6.63.421-10 0-1.812-2-1.812-2-3-5a195 195 0 0 0-2.687-4.187C746 518.245 746 518.245 746 516c1.454.03 1.454.03 2.938.063 2.937.293 2.937.293 4.062-1.063" id="svg-layer-66" style="pointer-events: all;"/><path fill="#FCFCFC" d="M454 559c4.134 1.378 4.986 3.435 6.984 7.18 1.845 5.123 1.721 10.462 1.016 15.82l-2 3a740 740 0 0 1-4.562-9.125l-1.327-2.594c-1.897-3.883-3.134-6.458-3.013-10.836C452 560 452 560 454 559" id="svg-layer-67" style="pointer-events: all;"/><path fill="#D7832D" d="M403 554c4.735.395 8.66.965 13 3-3.696 4.076-7.236 6.469-12.187 8.813-.629.31-1.257.622-1.905.943C397.297 569 397.297 569 395 569c1.468-5.338 4.015-11.015 8-15" id="svg-layer-68" style="pointer-events: all;"/><path fill="#105DBC" d="M563 471c3.375.547 5.082 1.055 8 3 .654 5.561-.611 9.123-3 14l-2.687-2.062c-3.091-2.236-3.091-2.236-6.188-1.688L557 485l.867-1.672c1.21-2.487 2.243-5.005 3.258-7.578l1.07-2.703z" id="svg-layer-69" style="pointer-events: all;"/><path fill="#1B7ED1" d="M782 718c4.388.548 8.471 1.386 12.75 2.54 2.672.547 5.278.683 8 .835 3.712.273 4.912.366 7.938 2.688L812 726l-1.836-.402c-6.041-1.274-12.011-2.1-18.164-2.598 13.231 7.443 26.918 13.354 41 19-3.701 1.375-5.65.617-9.191-.957l-3.088-1.36-3.284-1.495-3.361-1.506C803.176 731.74 791.983 726.655 782 720z" id="svg-layer-70" style="pointer-events: all;"/><path fill="#1976CC" d="M264 605c1.297 3.892.37 4.978-1.25 8.688-3.08 7.64-4.488 15.179-5.75 23.312l-.574 3.387c-.516 4.375-.535 8.651-.488 13.05l.013 2.506q.02 3.03.049 6.057l2-9h1c.404 6.459-.408 11.061-3 17l-2-1c-4.596-20.004.58-46.062 10-64" id="svg-layer-71" style="pointer-events: all;"/><path fill="#1C80D3" d="M741 432c3.12 4.68 3.862 9.936 5.125 15.375l.909 3.895c2.847 12.46 5.118 25.022 7.341 37.605l.53 2.998q.753 4.277 1.493 8.557l.448 2.57c.854 4.988 1.563 9.973 2.154 15l-2-1c-.68-2.528-1.21-4.993-1.687-7.562l-.499-2.567c-1.227-6.441-2.344-12.901-3.455-19.363l-2.251-13.099c-2.017-11.725-4.262-23.31-7.26-34.83C741 436 741 436 741 432" id="svg-layer-72" style="pointer-events: all;"/><path fill="#1C80D2" d="M277 583c3.827 3.424 5.723 6.007 7 11l-2.375.188L279 595c-.71 1.649-1.37 3.32-2 5a344 344 0 0 1-3.125 4.813C265.999 618.136 261.086 634.578 260 650c-2-2-2-2-2.04-4.195 2.59-18.313 9.114-38.483 20.853-53.055L280 591c-.71-2.734-.71-2.734-2-5l-1.812 1.813L271 593c1.37-3.995 3.257-6.8 6-10" id="svg-layer-73" style="pointer-events: all;"/><path fill="#1C80D3" d="M739 448c1.99 2.986 2.583 4.833 3.367 8.277l.74 3.22.768 3.44.8 3.508c1.843 8.164 3.546 16.35 5.032 24.586.723 4.427.723 4.427 3.293 7.969v3q.234 3.346.5 6.688l.281 3.574L754 515l-2-1c-.6-1.893-.6-1.893-1.097-4.405l-.577-2.846-.603-3.108-.643-3.198q-1.018-5.095-2.018-10.193-.998-5.022-2.002-10.044-.645-3.234-1.288-6.47c-1.297-6.5-2.688-12.957-4.294-19.39C739 452 739 452 739 448" id="svg-layer-74" style="pointer-events: all;"/><path fill="#1C82D4" d="M615 624c1.303 3.909.06 6.194-1.312 9.875-5.894 16.892-5.659 34.494-3.688 52.125l-2-1c-4.52-19.857-1.482-42.637 7-61" id="svg-layer-75" style="pointer-events: all;"/></svg>